# xmcd
#
# Track frame offsets:
#	150
#	16056
#	31359
#	44675
#	57823
#	73457
#	94643
#	105929
#	121187
#	138741
#	153954
#	167486
#	178155
#	187441
#	195983
#	204133
#	211593
#	212578
#	229887
#	249755
#	264264
#	269843
#
# Disc length: 3783 seconds
#
# Revision: 1
# Processed by: cddbd v1.5.2PL0 Copyright (c) Steve Scherf et al.
# Submitted via: EasyCDDAExtractor 12.0.7.1
#
DISCID=340ec516
DTITLE=Byrds - The Byrds [Box Set] cd3
DYEAR=1990
DGENRE=Folk/Rock
TTITLE0=Hickory Wind
TTITLE1=Nothing Was Delivered
TTITLE2=One Hundred Years From Now
TTITLE3=Pretty Polly
TTITLE4=Lazy Days
TTITLE5=This Wheel's On Fire
TTITLE6=Nashville West
TTITLE7=Old Blue
TTITLE8=Drug Store Truck Drivin' Man
TTITLE9=Bad Night At The Whiskey
TTITLE10=Lay Lady Lay
TTITLE11=Mae Jean Goes To Hollywood
TTITLE12=Ballad Of Easy Rider
TTITLE13=Oil In My Lamp
TTITLE14=Jesus Is Just Alright
TTITLE15=Way Beyond The Sun
TTITLE16=Tulsa County
TTITLE17=Deportee (Plane Wreck At Los Gatos)
TTITLE18=Lover Of The Bayou
TTITLE19=Willin'
TTITLE20=Black Mountain Rag
TTITLE21=Positively 4th Street
EXTD=
EXTT0=
EXTT1=
EXTT2=
EXTT3=
EXTT4=
EXTT5=
EXTT6=
EXTT7=
EXTT8=
EXTT9=
EXTT10=
EXTT11=
EXTT12=
EXTT13=
EXTT14=
EXTT15=
EXTT16=
EXTT17=
EXTT18=
EXTT19=
EXTT20=
EXTT21=
PLAYORDER=
